# xmcd CD database file
#
# Track frame offsets:
#	150
#	14215
#	28975
#	38475
#	53795
#	67567
#	81250
#	95607
#	108995
#	119550
#	135965
#	146630
#	158312
#	171587
#	183220
#	194600
#	207925
#	224225
#
# Disc length: 3168 seconds
#
# Revision: 0
# Processed by: cddbd v1.4PL0 Copyright (c) Steve Scherf et al.
# Submitted via: CDex 1.50beta9
#
DISCID=060c5e12
DTITLE=Ralf Paulsen - Ein schönes Lied zur richtigen Zeit
DYEAR=1999
DGENRE=Country
TTITLE0=Glaub an Dich
TTITLE1=Das Lied schrieb die Erinnerung
TTITLE2=Bonanza
TTITLE3=Die Lady mit dem Colt
TTITLE4=Ich wünsch Dir einen guten Tag
TTITLE5=Fang doch den Morgen mit Countrymusik an
TTITLE6=Spiel mir das schöne alte Lied von der Prärie
TTITLE7=Frühling
TTITLE8=Die besten Jahre fangen erst an
TTITLE9=Neu sind die Namen
TTITLE10=Geisterreiter
TTITLE11=Ein schönes Lied zur richtigen Zeit
TTITLE12=Das alte Haus von Rocky Docky
TTITLE13=Es hängt ein Pferdehalfter an der Wand
TTITLE14=Sonne und Regen
TTITLE15=Country und Swing
TTITLE16=Laß doch die Sonne für Dich scheinen
TTITLE17=Die beste Zeit in Deinem Leben
EXTD=YEAR: 1999
EXTT0=
EXTT1=
EXTT2=
EXTT3=
EXTT4=
EXTT5=
EXTT6=
EXTT7=
EXTT8=
EXTT9=
EXTT10=
EXTT11=
EXTT12=
EXTT13=
EXTT14=
EXTT15=
EXTT16=
EXTT17=
PLAYORDER=
